solid Voronoi
facet normal 0.0 -72.0 18.0
outer loop
vertex 16.5 4.5 14.5
vertex 23.5 3.5 10.5
vertex 34.5 4.5 14.5
facet normal 0.0 -72.0 18.0
outer loop
vertex 16.642857142857142 3.071428571428571 8.785714285714285
vertex 16.5 4.5 14.5
vertex 9.357142857142858 3.071428571428571 8.785714285714285
facet normal 0.0 -72.0 18.0
outer loop
vertex 16.5 4.5 14.5
vertex 16.642857142857142 3.071428571428571 8.785714285714285
vertex 23.5 3.5 10.5
endloop
endfacet
facet normal -11.033653846153845 5.516826923076923 1.7763568394002505e-15
outer loop
vertex 4.75 -2.5 9.75
vertex 6.625 1.2499999999999991 7.875
vertex 5.153846153846153 -1.6923076923076927 6.403846153846155
facet normal -11.033653846153845 5.516826923076923 1.7763568394002505e-15
outer loop
vertex 3.4230769230769225 -5.153846153846154 8.423076923076923
vertex 4.75 -2.5 9.75
vertex 5.153846153846153 -1.6923076923076927 6.403846153846155
endloop
endfacet
facet normal 1.7763568394002505e-15 -2.6796016483516496 5.359203296703297
outer loop
vertex 9.357142857142858 3.071428571428571 8.785714285714285
vertex 5.5 -2.499999999999999 5.999999999999998
vertex 16.642857142857142 3.071428571428572 8.785714285714283
facet normal 1.7763568394002505e-15 -2.6796016483516496 5.359203296703297
outer loop
vertex 5.5 -2.499999999999999 5.999999999999998
vertex 6.625 1.25 7.874999999999999
vertex 5.153846153846154 -1.6923076923076907 6.403846153846153
facet normal 1.7763568394002505e-15 -2.6796016483516496 5.359203296703297
outer loop
vertex 6.625 1.25 7.874999999999999
vertex 5.5 -2.499999999999999 5.999999999999998
vertex 9.357142857142858 3.071428571428571 8.785714285714285
endloop
endfacet
facet normal -0.4440022111663884 1.3320066334991696 -1.3320066334991782
outer loop
vertex 0.833333333333341 5.27777777777778 10.166666666666666
vertex 1.7857142857142954 2.214285714285706 6.785714285714295
vertex -5.41044776119403 1.9477611940298507 8.917910447761194
facet normal -0.4440022111663884 1.3320066334991696 -1.3320066334991782
outer loop
vertex 0.833333333333341 5.27777777777778 10.166666666666666
vertex 3.9285714285714395 5.071428571428569 8.928571428571434
vertex 1.7857142857142954 2.214285714285706 6.785714285714295
facet normal -0.4440022111663884 1.3320066334991696 -1.3320066334991782
outer loop
vertex 3.9285714285714395 5.071428571428569 8.928571428571434
vertex 1.9000000000000092 5.6333333333333355 10.166666666666666
vertex 3.9285714285714395 5.4642857142857135 9.321428571428575
facet normal -0.4440022111663884 1.3320066334991696 -1.3320066334991782
outer loop
vertex 1.9000000000000092 5.6333333333333355 10.166666666666666
vertex 3.9285714285714395 5.071428571428569 8.928571428571434
vertex 0.833333333333341 5.27777777777778 10.166666666666666
endloop
endfacet
facet normal 2.8528708133971303 2.85287081339713 -0.5705741626794263
outer loop
vertex 6.973684210526316 6.394736842105263 16.342105263157894
vertex 6.5 7.166666666666667 17.833333333333336
vertex 7.2272727272727275 7.409090909090909 22.68181818181818
facet normal 2.8528708133971303 2.85287081339713 -0.5705741626794263
outer loop
vertex 6.5 7.166666666666667 17.833333333333336
vertex 6.973684210526316 6.394736842105263 16.342105263157894
vertex 6.5 6.75 15.75
endloop
endfacet
facet normal 3.1086244689504383e-15 -15.214285714285715 3.0428571428571414
outer loop
vertex 3.928571428571429 5.464285714285714 9.321428571428571
vertex 6.5 6.75 15.75
vertex 1.9 5.633333333333333 10.166666666666666
facet normal 3.1086244689504383e-15 -15.214285714285715 3.0428571428571414
outer loop
vertex 6.5 6.75 15.75
vertex 6.499999999999998 7.166666666666667 17.833333333333336
vertex 1.9 5.633333333333333 10.166666666666666
endloop
endfacet
facet normal -14.657142857142853 0.0 14.657142857142853
outer loop
vertex 6.1 2.9000000000000004 11.1
vertex 3.928571428571429 5.071428571428571 8.928571428571429
vertex 1.7857142857142851 2.2142857142857144 6.7857142857142865
facet normal -14.657142857142853 0.0 14.657142857142853
outer loop
vertex 4.75 -2.5 9.75
vertex 6.1 2.9000000000000004 11.1
vertex 1.7857142857142851 2.2142857142857144 6.7857142857142865
facet normal -14.657142857142853 0.0 14.657142857142853
outer loop
vertex 3.4230769230769234 -5.153846153846155 8.423076923076923
vertex 4.75 -2.5 9.75
vertex 1.7857142857142851 2.2142857142857144 6.7857142857142865
endloop
endfacet
facet normal 18.971428571428568 9.48571428571428 -9.485714285714284
outer loop
vertex 3.928571428571429 5.4642857142857135 9.321428571428573
vertex 6.1 2.9000000000000004 11.100000000000001
vertex 3.928571428571429 5.071428571428571 8.92857142857143
facet normal 18.971428571428568 9.48571428571428 -9.485714285714284
outer loop
vertex 6.1 2.9000000000000004 11.100000000000001
vertex 6.5 6.75 15.75
vertex 6.973684210526316 6.394736842105263 16.342105263157894
facet normal 18.971428571428568 9.48571428571428 -9.485714285714284
outer loop
vertex 6.5 6.75 15.75
vertex 6.1 2.9000000000000004 11.100000000000001
vertex 3.928571428571429 5.4642857142857135 9.321428571428573
endloop
endfacet
facet normal -9.130434782608694 -27.391304347826082 18.260869565217387
outer loop
vertex 9.35714285714286 3.071428571428571 8.785714285714285
vertex 8.282608695652176 5.413043478260869 11.76086956521739
vertex 7.847826086956523 3.2391304347826084 8.282608695652174
facet normal -9.130434782608694 -27.391304347826082 18.260869565217387
outer loop
vertex 8.282608695652176 5.413043478260869 11.76086956521739
vertex 9.35714285714286 3.071428571428571 8.785714285714285
vertex 16.5 4.5 14.5
endloop
endfacet
facet normal -15.888461538461538 5.296153846153845 -5.29615384615385
outer loop
vertex 4.75 -2.5 9.75
vertex 6.1 2.9000000000000004 11.1
vertex 6.625 1.2500000000000004 7.875
facet normal -15.888461538461538 5.296153846153845 -5.29615384615385
outer loop
vertex 6.1 2.9000000000000004 11.1
vertex 6.884615384615385 2.115384615384615 7.961538461538462
vertex 6.625 1.2500000000000004 7.875
endloop
endfacet
facet normal 0.630494505494504 3.0531133177191805e-16 -1.8914835164835153
outer loop
vertex 6.625 1.2500000000000002 7.875
vertex 6.884615384615385 2.115384615384615 7.961538461538462
vertex 9.357142857142858 3.071428571428571 8.785714285714285
facet normal 0.630494505494504 3.0531133177191805e-16 -1.8914835164835153
outer loop
vertex 6.884615384615385 2.115384615384615 7.961538461538462
vertex 7.8478260869565215 3.239130434782609 8.282608695652174
vertex 9.357142857142858 3.071428571428571 8.785714285714285
endloop
endfacet
facet normal -6.544622425629287 6.54462242562929 -3.2723112128146443
outer loop
vertex 6.1 2.900000000000002 11.1
vertex 7.8478260869565215 3.2391304347826093 8.282608695652174
vertex 6.884615384615385 2.1153846153846168 7.961538461538462
facet normal -6.544622425629287 6.54462242562929 -3.2723112128146443
outer loop
vertex 8.282608695652174 5.413043478260869 11.76086956521739
vertex 6.1 2.900000000000002 11.1
vertex 6.973684210526316 6.394736842105263 16.342105263157894
facet normal -6.544622425629287 6.54462242562929 -3.2723112128146443
outer loop
vertex 6.1 2.900000000000002 11.1
vertex 8.282608695652174 5.413043478260869 11.76086956521739
vertex 7.8478260869565215 3.2391304347826093 8.282608695652174
endloop
endfacet
facet normal 0.22666666666666602 -0.11333333333333291 -0.11333333333333291
outer loop
vertex 1.9 5.633333333333333 10.166666666666666
vertex 6.499999999999995 12.249999999999996 12.75
vertex 6.499999999999998 7.166666666666667 17.833333333333336
facet normal 0.22666666666666602 -0.11333333333333291 -0.11333333333333291
outer loop
vertex 6.499999999999995 12.249999999999996 12.75
vertex 1.9 5.699999999999999 10.1
vertex 3.599999999999998 10.799999999999997 8.4
facet normal 0.22666666666666602 -0.11333333333333291 -0.11333333333333291
outer loop
vertex 1.9 5.699999999999999 10.1
vertex 6.499999999999995 12.249999999999996 12.75
vertex 1.9 5.633333333333333 10.166666666666666
endloop
endfacet
facet normal 1.0037202380952368 2.007440476190477 2.0074404761904754
outer loop
vertex 4.833333333333333 7.166666666666666 7.166666666666667
vertex 3.9285714285714293 5.464285714285714 9.321428571428571
vertex 5.625 6.3125 7.625
facet normal 1.0037202380952368 2.007440476190477 2.0074404761904754
outer loop
vertex 5.214285714285714 6.928571428571429 7.214285714285714
vertex 4.833333333333333 7.166666666666666 7.166666666666667
vertex 5.625 6.3125 7.625
facet normal 1.0037202380952368 2.007440476190477 2.0074404761904754
outer loop
vertex 3.9285714285714293 5.464285714285714 9.321428571428571
vertex 1.9 5.699999999999999 10.1
vertex 1.9 5.633333333333333 10.166666666666666
facet normal 1.0037202380952368 2.007440476190477 2.0074404761904754
outer loop
vertex 1.9 5.699999999999999 10.1
vertex 3.9285714285714293 5.464285714285714 9.321428571428571
vertex 4.833333333333333 7.166666666666666 7.166666666666667
endloop
endfacet
facet normal 3.0208333333333357 0.0 0.0
outer loop
vertex 6.5 6.75 15.75
vertex 6.5 12.25 12.75
vertex 6.5 7.166666666666667 17.833333333333336
facet normal 3.0208333333333357 0.0 0.0
outer loop
vertex 6.5 8.0 8.5
vertex 6.5 6.75 15.75
vertex 6.5 6.75 8.5
facet normal 3.0208333333333357 0.0 0.0
outer loop
vertex 6.5 6.75 15.75
vertex 6.5 8.0 8.5
vertex 6.5 12.25 12.75
endloop
endfacet
facet normal -3.171875 6.34375 0.0
outer loop
vertex 6.5 6.75 15.75
vertex 6.5 6.75 8.5
vertex 3.9285714285714297 5.464285714285715 9.321428571428571
facet normal -3.171875 6.34375 0.0
outer loop
vertex 6.5 6.75 8.5
vertex 5.625 6.3125 7.625000000000002
vertex 3.9285714285714297 5.464285714285715 9.321428571428571
endloop
endfacet
facet normal -12.466666666666667 0.0 -12.466666666666669
outer loop
vertex 1.9 5.699999999999999 10.1
vertex 4.25 9.5 7.75
vertex 4.833333333333333 7.166666666666667 7.166666666666667
facet normal -12.466666666666667 0.0 -12.466666666666669
outer loop
vertex 3.5999999999999996 10.8 8.4
vertex 4.25 9.5 7.75
vertex 1.9 5.699999999999999 10.1
endloop
endfacet
facet normal -0.17857142857142838 -0.17857142857142883 0.535714285714286
outer loop
vertex 4.833333333333333 7.166666666666667 7.166666666666667
vertex 5.75 8.0 7.75
vertex 4.25 9.5 7.750000000000001
facet normal -0.17857142857142838 -0.17857142857142883 0.535714285714286
outer loop
vertex 4.833333333333333 7.166666666666667 7.166666666666667
vertex 5.214285714285714 6.928571428571429 7.214285714285714
vertex 5.75 8.0 7.75
endloop
endfacet
facet normal -0.9375 0.0 0.9375
outer loop
vertex 6.5 8.0 8.5
vertex 5.75 8.0 7.75
vertex 6.5 6.75 8.5
facet normal -0.9375 0.0 0.9375
outer loop
vertex 5.625 6.3125 7.625
vertex 5.75 8.0 7.75
vertex 5.214285714285714 6.928571428571429 7.214285714285714
facet normal -0.9375 0.0 0.9375
outer loop
vertex 5.75 8.0 7.75
vertex 5.625 6.3125 7.625
vertex 6.5 6.75 8.5
endloop
endfacet
facet normal 3.1875 3.1875 -3.1875
outer loop
vertex 6.500000000000002 7.999999999999997 8.5
vertex 3.5999999999999996 10.8 8.399999999999999
vertex 6.5 12.25 12.75
facet normal 3.1875 3.1875 -3.1875
outer loop
vertex 4.25 9.5 7.75
vertex 6.500000000000002 7.999999999999997 8.5
vertex 5.750000000000002 7.999999999999998 7.749999999999999
facet normal 3.1875 3.1875 -3.1875
outer loop
vertex 6.500000000000002 7.999999999999997 8.5
vertex 4.25 9.5 7.75
vertex 3.5999999999999996 10.8 8.399999999999999
endloop
endfacet
facet normal -1.7763568394002505e-15 54.89852216748769 18.29950738916257
outer loop
vertex 8.982758620689655 7.051724137931035 6.844827586206897
vertex 16.5 4.499999999999999 14.5
vertex 34.5 4.5 14.5
facet normal -1.7763568394002505e-15 54.89852216748769 18.29950738916257
outer loop
vertex 8.282608695652172 5.413043478260869 11.76086956521739
vertex 8.982758620689655 7.051724137931035 6.844827586206897
vertex 6.757142857142856 6.557142857142857 8.32857142857143
facet normal -1.7763568394002505e-15 54.89852216748769 18.29950738916257
outer loop
vertex 8.982758620689655 7.051724137931035 6.844827586206897
vertex 8.282608695652172 5.413043478260869 11.76086956521739
vertex 16.5 4.499999999999999 14.5
endloop
endfacet
facet normal 8.610853220006536 11.48113762667538 0.0
outer loop
vertex 6.973684210526316 6.394736842105263 16.342105263157894
vertex 8.282608695652174 5.41304347826087 11.76086956521739
vertex 6.5 6.75 15.75
facet normal 8.610853220006536 11.48113762667538 0.0
outer loop
vertex 8.282608695652174 5.41304347826087 11.76086956521739
vertex 6.5 6.75 8.5
vertex 6.5 6.75 15.75
facet normal 8.610853220006536 11.48113762667538 0.0
outer loop
vertex 6.5 6.75 8.5
vertex 8.282608695652174 5.41304347826087 11.76086956521739
vertex 6.757142857142857 6.557142857142857 8.328571428571431
endloop
endfacet
facet normal -2.6707389162561572 -6.661338147750939e-16 -4.006108374384234
outer loop
vertex 6.5 8.0 8.500000000000002
vertex 9.706896551724139 10.672413793103448 6.36206896551724
vertex 10.1 9.1 6.1
facet normal -2.6707389162561572 -6.661338147750939e-16 -4.006108374384234
outer loop
vertex 6.5 8.0 8.500000000000002
vertex 6.757142857142858 6.557142857142857 8.32857142857143
vertex 6.5 6.75 8.500000000000002
facet normal -2.6707389162561572 -6.661338147750939e-16 -4.006108374384234
outer loop
vertex 8.982758620689655 7.051724137931035 6.844827586206897
vertex 6.5 8.0 8.500000000000002
vertex 10.1 9.1 6.1
facet normal -2.6707389162561572 -6.661338147750939e-16 -4.006108374384234
outer loop
vertex 8.982758620689655 7.051724137931035 6.844827586206897
vertex 6.757142857142858 6.557142857142857 8.32857142857143
vertex 6.5 8.0 8.500000000000002
endloop
endfacet
facet normal 2.8952380952380956 1.4476190476190458 -4.3428571428571425
outer loop
vertex 10.1 9.1 6.1
vertex 6.884615384615385 10.26923076923077 4.346153846153846
vertex 9.706896551724139 10.672413793103448 6.362068965517241
facet normal 2.8952380952380956 1.4476190476190458 -4.3428571428571425
outer loop
vertex 6.7857142857142865 10.071428571428571 4.2142857142857135
vertex 6.884615384615385 10.26923076923077 4.346153846153846
vertex 6.928571428571429 9.357142857142858 4.071428571428571
facet normal 2.8952380952380956 1.4476190476190458 -4.3428571428571425
outer loop
vertex 6.884615384615385 10.26923076923077 4.346153846153846
vertex 8.833333333333334 7.833333333333333 4.833333333333334
vertex 6.928571428571429 9.357142857142858 4.071428571428571
facet normal 2.8952380952380956 1.4476190476190458 -4.3428571428571425
outer loop
vertex 8.833333333333334 7.833333333333333 4.833333333333334
vertex 6.884615384615385 10.26923076923077 4.346153846153846
vertex 10.1 9.1 6.1
endloop
endfacet
facet normal 2.9172413793103456 -1.9448275862068969 -0.9724137931034458
outer loop
vertex 8.833333333333336 7.833333333333334 4.833333333333334
vertex 8.982758620689655 7.051724137931036 6.844827586206897
vertex 7.722222222222224 5.611111111111113 5.944444444444445
facet normal 2.9172413793103456 -1.9448275862068969 -0.9724137931034458
outer loop
vertex 10.1 9.1 6.1
vertex 8.982758620689655 7.051724137931036 6.844827586206897
vertex 8.833333333333336 7.833333333333334 4.833333333333334
endloop
endfacet
facet normal -2.220446049250313e-16 -0.9629629629629629 -1.9259259259259267
outer loop
vertex 6.928571428571429 9.357142857142858 4.071428571428571
vertex 8.833333333333334 7.833333333333333 4.833333333333334
vertex 5.500000000000001 6.5 5.500000000000001
facet normal -2.220446049250313e-16 -0.9629629629629629 -1.9259259259259267
outer loop
vertex 8.833333333333334 7.833333333333333 4.833333333333334
vertex 7.722222222222223 5.611111111111111 5.9444444444444455
vertex 5.500000000000001 6.5 5.500000000000001
facet normal -2.220446049250313e-16 -0.9629629629629629 -1.9259259259259267
outer loop
vertex 5.500000000000001 5.7 5.9
vertex 6.566666666666667 5.033333333333333 6.233333333333334
vertex 5.833333333333335 5.166666666666668 6.166666666666668
facet normal -2.220446049250313e-16 -0.9629629629629629 -1.9259259259259267
outer loop
vertex 7.722222222222223 5.611111111111111 5.9444444444444455
vertex 6.566666666666667 5.033333333333333 6.233333333333334
vertex 5.500000000000001 6.5 5.500000000000001
facet normal -2.220446049250313e-16 -0.9629629629629629 -1.9259259259259267
outer loop
vertex 6.566666666666667 5.033333333333333 6.233333333333334
vertex 5.500000000000001 5.7 5.9
vertex 5.500000000000001 6.5 5.500000000000001
endloop
endfacet
facet normal 1.6190476190476186 0.0 1.6190476190476186
outer loop
vertex 6.928571428571429 9.357142857142858 4.071428571428571
vertex 6.785714285714286 10.071428571428571 4.214285714285714
vertex 5.166666666666667 6.833333333333334 5.833333333333334
facet normal 1.6190476190476186 0.0 1.6190476190476186
outer loop
vertex 5.5 6.5 5.5
vertex 6.928571428571429 9.357142857142858 4.071428571428571
vertex 5.166666666666667 6.833333333333334 5.833333333333334
endloop
endfacet
facet normal 0.9725274725274753 -0.48626373626373764 0.0
outer loop
vertex 5.75 7.999999999999999 7.75
vertex 5.166666666666666 6.833333333333333 5.833333333333333
vertex 6.785714285714286 10.071428571428571 4.214285714285714
facet normal 0.9725274725274753 -0.48626373626373764 0.0
outer loop
vertex 5.071428571428571 6.6428571428571415 6.071428571428571
vertex 5.166666666666666 6.833333333333333 5.833333333333333
vertex 5.2142857142857135 6.928571428571428 7.214285714285715
facet normal 0.9725274725274753 -0.48626373626373764 0.0
outer loop
vertex 5.166666666666666 6.833333333333333 5.833333333333333
vertex 5.75 7.999999999999999 7.75
vertex 5.2142857142857135 6.928571428571428 7.214285714285715
facet normal 0.9725274725274753 -0.48626373626373764 0.0
outer loop
vertex 6.884615384615385 10.26923076923077 4.346153846153846
vertex 5.75 7.999999999999999 7.75
vertex 6.785714285714286 10.071428571428571 4.214285714285714
endloop
endfacet
facet normal -0.93639846743295 1.4045977011494255 -0.936398467432952
outer loop
vertex 6.757142857142855 6.557142857142858 8.32857142857143
vertex 7.722222222222221 5.611111111111111 5.944444444444445
vertex 6.5666666666666655 5.033333333333332 6.233333333333333
facet normal -0.93639846743295 1.4045977011494255 -0.936398467432952
outer loop
vertex 7.722222222222221 5.611111111111111 5.944444444444445
vertex 6.757142857142855 6.557142857142858 8.32857142857143
vertex 8.982758620689655 7.051724137931035 6.844827586206897
endloop
endfacet
facet normal 0.2708333333333336 1.083333333333332 -0.8124999999999987
outer loop
vertex 6.566666666666666 5.033333333333333 6.233333333333333
vertex 5.833333333333333 5.166666666666667 6.166666666666667
vertex 5.624999999999999 6.3125 7.625
facet normal 0.2708333333333336 1.083333333333332 -0.8124999999999987
outer loop
vertex 6.757142857142857 6.557142857142857 8.32857142857143
vertex 6.566666666666666 5.033333333333333 6.233333333333333
vertex 5.624999999999999 6.3125 7.625
facet normal 0.2708333333333336 1.083333333333332 -0.8124999999999987
outer loop
vertex 6.499999999999999 6.75 8.500000000000002
vertex 6.757142857142857 6.557142857142857 8.32857142857143
vertex 5.624999999999999 6.3125 7.625
endloop
endfacet
facet normal -0.5142857142857142 -0.17142857142857168 -0.34285714285714297
outer loop
vertex 5.5 5.7 5.9
vertex 5.071428571428571 6.642857142857143 6.071428571428571
vertex 5.5 6.5 5.5
facet normal -0.5142857142857142 -0.17142857142857168 -0.34285714285714297
outer loop
vertex 5.071428571428571 6.642857142857143 6.071428571428571
vertex 5.166666666666667 6.833333333333334 5.833333333333333
vertex 5.5 6.5 5.5
endloop
endfacet
facet normal 0.3428571428571425 0.17142857142857137 -0.08571428571428624
outer loop
vertex 5.071428571428571 6.642857142857143 6.071428571428571
vertex 5.214285714285715 6.92857142857143 7.2142857142857135
vertex 5.625000000000002 6.312500000000001 7.624999999999999
facet normal 0.3428571428571425 0.17142857142857137 -0.08571428571428624
outer loop
vertex 5.833333333333334 5.166666666666667 6.166666666666667
vertex 5.5 5.7 5.9
vertex 5.625000000000002 6.312500000000001 7.624999999999999
facet normal 0.3428571428571425 0.17142857142857137 -0.08571428571428624
outer loop
vertex 5.5 5.7 5.9
vertex 5.071428571428571 6.642857142857143 6.071428571428571
vertex 5.625000000000002 6.312500000000001 7.624999999999999
endloop
endfacet
facet normal -6.249336870026524 12.498673740053054 6.249336870026529
outer loop
vertex 9.706896551724139 10.672413793103448 6.362068965517241
vertex 6.884615384615385 10.26923076923077 4.346153846153846
vertex 5.75 8.0 7.75
facet normal -6.249336870026524 12.498673740053054 6.249336870026529
outer loop
vertex 6.5 8.0 8.5
vertex 9.706896551724139 10.672413793103448 6.362068965517241
vertex 5.75 8.0 7.75
endloop
endfacet
facet normal -1.2518518518518513 -1.2518518518518522 -3.7555555555555564
outer loop
vertex 4.277777777777778 7.722222222222222 1.8333333333333333
vertex 3.9166666666666665 4.833333333333333 2.916666666666666
vertex 3.142857142857143 7.928571428571429 2.1428571428571423
facet normal -1.2518518518518513 -1.2518518518518522 -3.7555555555555564
outer loop
vertex 4.277777777777778 7.722222222222222 1.8333333333333333
vertex 5.433333333333334 6.566666666666666 1.8333333333333335
vertex 3.9166666666666665 4.833333333333333 2.916666666666666
endloop
endfacet
facet normal 66.58333333333333 -44.388888888888886 22.194444444444443
outer loop
vertex 3.875 -1.125 -8.874999999999996
vertex 6.999999999999999 4.999999999999999 -5.999999999999997
vertex 3.2222222222222223 3.4444444444444446 2.2222222222222223
facet normal 66.58333333333333 -44.388888888888886 22.194444444444443
outer loop
vertex 6.999999999999999 4.999999999999999 -5.999999999999997
vertex 3.875 -1.125 -8.874999999999996
vertex 8.125 3.125 -13.124999999999996
facet normal 66.58333333333333 -44.388888888888886 22.194444444444443
outer loop
vertex 6.999999999999999 4.999999999999999 -5.999999999999997
vertex 5.433333333333332 6.566666666666665 1.8333333333333337
vertex 3.2222222222222223 3.4444444444444446 2.2222222222222223
facet normal 66.58333333333333 -44.388888888888886 22.194444444444443
outer loop
vertex 5.433333333333332 6.566666666666665 1.8333333333333337
vertex 3.9166666666666665 4.833333333333333 2.916666666666666
vertex 3.2222222222222223 3.4444444444444446 2.2222222222222223
endloop
endfacet
facet normal -0.042798353909464966 -0.042798353909464945 0.12839506172839568
outer loop
vertex 6.766666666666669 9.033333333333335 3.0999999999999934
vertex 6.500000000000003 10.500000000000002 3.499999999999991
vertex 4.277777777777778 7.722222222222222 1.8333333333333333
facet normal -0.042798353909464966 -0.042798353909464945 0.12839506172839568
outer loop
vertex 5.537037037037037 6.574074074074074 1.8703703703703707
vertex 6.766666666666669 9.033333333333335 3.0999999999999934
vertex 4.277777777777778 7.722222222222222 1.8333333333333333
facet normal -0.042798353909464966 -0.042798353909464945 0.12839506172839568
outer loop
vertex 5.433333333333334 6.566666666666666 1.8333333333333335
vertex 5.537037037037037 6.574074074074074 1.8703703703703707
vertex 4.277777777777778 7.722222222222222 1.8333333333333333
endloop
endfacet
facet normal 1.7999999999999998 0.0 1.2
outer loop
vertex 7.0 8.625 2.75
vertex 7.0 12.25 2.75
vertex 6.5 10.5 3.5
facet normal 1.7999999999999998 0.0 1.2
outer loop
vertex 6.766666666666667 9.033333333333333 3.1
vertex 7.0 8.625 2.75
vertex 6.5 10.5 3.5
endloop
endfacet
facet normal 0.35864197530864217 -0.7172839506172841 1.0759259259259257
outer loop
vertex 7.0 6.461538461538462 1.3076923076923073
vertex 7.0 8.625 2.75
vertex 5.537037037037037 6.574074074074074 1.8703703703703705
facet normal 0.35864197530864217 -0.7172839506172841 1.0759259259259257
outer loop
vertex 7.0 8.625 2.75
vertex 6.766666666666667 9.033333333333333 3.1
vertex 5.537037037037037 6.574074074074074 1.8703703703703705
endloop
endfacet
facet normal 3.552713678800501e-15 -11.448717948717947 2.2897435897435896
outer loop
vertex 7.0 5.0 -6.000000000000002
vertex 7.0 6.461538461538462 1.3076923076923077
vertex 5.433333333333334 6.566666666666666 1.8333333333333335
facet normal 3.552713678800501e-15 -11.448717948717947 2.2897435897435896
outer loop
vertex 7.0 6.461538461538462 1.3076923076923077
vertex 5.537037037037037 6.5740740740740735 1.8703703703703705
vertex 5.433333333333334 6.566666666666666 1.8333333333333335
endloop
endfacet
facet normal -0.6994505494505507 1.3989010989010993 -2.0983516483516476
outer loop
vertex 3.0769230769230784 11.307692307692308 7.846153846153847
vertex 3.2857142857142874 10.785714285714286 7.428571428571429
vertex 0.5 7.699999999999999 6.3
facet normal -0.6994505494505507 1.3989010989010993 -2.0983516483516476
outer loop
vertex 3.2857142857142874 10.785714285714286 7.428571428571429
vertex 2.9615384615384626 8.192307692307693 5.807692307692307
vertex 0.5 7.699999999999999 6.3
endloop
endfacet
facet normal 0.34871794871794837 -0.11623931623931627 0.11623931623931583
outer loop
vertex 2.9615384615384617 8.192307692307692 5.8076923076923075
vertex 3.833333333333333 9.5 4.5
vertex 3.2857142857142883 10.785714285714286 7.42857142857143
facet normal 0.34871794871794837 -0.11623931623931627 0.11623931623931583
outer loop
vertex 4.1 10.033333333333333 4.233333333333333
vertex 4.687500000000001 12.1875 4.625
vertex 3.2857142857142883 10.785714285714286 7.42857142857143
facet normal 0.34871794871794837 -0.11623931623931627 0.11623931623931583
outer loop
vertex 3.833333333333333 9.5 4.5
vertex 4.1 10.033333333333333 4.233333333333333
vertex 3.2857142857142883 10.785714285714286 7.42857142857143
endloop
endfacet
facet normal 0.09696969696969686 -0.06464646464646445 -0.03232323232323206
outer loop
vertex 3.9545454545454546 9.863636363636363 4.136363636363637
vertex 4.1 10.033333333333333 4.233333333333333
vertex 3.833333333333333 9.5 4.5
endloop
endfacet
facet normal -0.01041666666666674 0.01041666666666674 0.041666666666666685
outer loop
vertex 3.1666666666666665 7.833333333333333 5.833333333333334
vertex 3.0 8.0 5.75
vertex 2.875 7.875 5.75
endloop
endfacet
facet normal -0.05394736842105198 0.053947368421051495 -0.21578947368420806
outer loop
vertex 3.0 8.0 5.75
vertex 2.875 7.875 5.75
vertex 2.9615384615384617 8.192307692307692 5.807692307692307
facet normal -0.05394736842105198 0.053947368421051495 -0.21578947368420806
outer loop
vertex 0.5000000000000004 7.699999999999999 6.300000000000001
vertex 2.875 7.875 5.75
vertex 0.4473684210526314 7.605263157894737 6.289473684210527
facet normal -0.05394736842105198 0.053947368421051495 -0.21578947368420806
outer loop
vertex 2.875 7.875 5.75
vertex 0.5000000000000004 7.699999999999999 6.300000000000001
vertex 2.9615384615384617 8.192307692307692 5.807692307692307
endloop
endfacet
facet normal 1.7763568394002505e-15 8.739473684210523 4.3697368421052625
outer loop
vertex 1.2999999999999998 5.9 9.7
vertex 1.9 5.699999999999999 10.100000000000001
vertex 4.833333333333333 7.166666666666666 7.166666666666666
facet normal 1.7763568394002505e-15 8.739473684210523 4.3697368421052625
outer loop
vertex 3.1666666666666665 7.833333333333333 5.833333333333334
vertex 1.2999999999999998 5.9 9.7
vertex 4.833333333333333 7.166666666666666 7.166666666666666
facet normal 1.7763568394002505e-15 8.739473684210523 4.3697368421052625
outer loop
vertex 1.2999999999999998 5.9 9.7
vertex 2.875 7.875 5.75
vertex 0.44736842105263186 7.605263157894737 6.2894736842105265
facet normal 1.7763568394002505e-15 8.739473684210523 4.3697368421052625
outer loop
vertex 3.1666666666666665 7.833333333333333 5.833333333333334
vertex 2.875 7.875 5.75
vertex 1.2999999999999998 5.9 9.7
endloop
endfacet
facet normal -3.4999999999999982 -1.749999999999999 3.4999999999999996
outer loop
vertex 4.25 9.5 7.75
vertex 3.2857142857142856 10.785714285714286 7.428571428571429
vertex 2.9615384615384612 8.192307692307692 5.8076923076923075
facet normal -3.4999999999999982 -1.749999999999999 3.4999999999999996
outer loop
vertex 3.1666666666666665 7.833333333333333 5.833333333333334
vertex 4.25 9.5 7.75
vertex 2.9615384615384612 8.192307692307692 5.8076923076923075
facet normal -3.4999999999999982 -1.749999999999999 3.4999999999999996
outer loop
vertex 4.25 9.5 7.75
vertex 3.1666666666666665 7.833333333333333 5.833333333333334
vertex 4.833333333333333 7.166666666666667 7.166666666666667
facet normal -3.4999999999999982 -1.749999999999999 3.4999999999999996
outer loop
vertex 2.9999999999999996 8.0 5.75
vertex 3.1666666666666665 7.833333333333333 5.833333333333334
vertex 2.9615384615384612 8.192307692307692 5.8076923076923075
endloop
endfacet
facet normal -15.347368421052629 7.673684210526312 7.673684210526313
outer loop
vertex 1.3000000000000003 5.9 9.7
vertex 0.49999999999999967 7.699999999999999 6.3
vertex 0.44736842105263186 7.605263157894737 6.2894736842105265
facet normal -15.347368421052629 7.673684210526312 7.673684210526313
outer loop
vertex 0.49999999999999967 7.699999999999999 6.3
vertex 1.3000000000000003 5.9 9.7
vertex 3.1 11.3 7.9
facet normal -15.347368421052629 7.673684210526312 7.673684210526313
outer loop
vertex 3.0769230769230775 11.307692307692308 7.846153846153847
vertex 0.49999999999999967 7.699999999999999 6.3
vertex 3.1 11.3 7.9
endloop
endfacet
facet normal 1.8000000000000007 -1.7999999999999994 -3.6
outer loop
vertex 1.2999999999999998 5.9 9.7
vertex 3.6000000000000014 10.800000000000004 8.399999999999999
vertex 1.9 5.699999999999999 10.1
facet normal 1.8000000000000007 -1.7999999999999994 -3.6
outer loop
vertex 3.6000000000000014 10.800000000000004 8.399999999999999
vertex 1.2999999999999998 5.9 9.7
vertex 3.1000000000000005 11.300000000000004 7.899999999999999
endloop
endfacet
facet normal -0.023076923076922995 -0.015384615384615552 0.007692307692307443
outer loop
vertex 4.250000000000012 9.500000000000007 7.749999999999996
vertex 3.5999999999999996 10.8 8.4
vertex 3.2857142857142914 10.78571428571429 7.428571428571427
facet normal -0.023076923076922995 -0.015384615384615552 0.007692307692307443
outer loop
vertex 3.5999999999999996 10.8 8.4
vertex 3.0999999999999996 11.3 7.9
vertex 3.2857142857142914 10.78571428571429 7.428571428571427
facet normal -0.023076923076922995 -0.015384615384615552 0.007692307692307443
outer loop
vertex 3.0999999999999996 11.3 7.9
vertex 3.076923076923077 11.307692307692308 7.846153846153847
vertex 3.2857142857142914 10.78571428571429 7.428571428571427
endloop
endfacet
facet normal 1.0 -1.0 0.0
outer loop
vertex 3.0 8.0 2.25
vertex 3.5 8.5 3.0
vertex 1.346153846153847 6.346153846153847 4.73076923076923
facet normal 1.0 -1.0 0.0
outer loop
vertex 3.5 8.5 3.0
vertex 3.5 8.5 5.0
vertex 1.346153846153847 6.346153846153847 4.73076923076923
facet normal 1.0 -1.0 0.0
outer loop
vertex 3.5 8.5 5.0
vertex 2.875 7.875 5.749999999999999
vertex 1.346153846153847 6.346153846153847 4.73076923076923
facet normal 1.0 -1.0 0.0
outer loop
vertex 2.875 7.875 5.749999999999999
vertex 3.5 8.5 5.0
vertex 3.0 8.0 5.749999999999999
endloop
endfacet
facet normal 1.0996963562753037 -3.2990890688259107 3.299089068825912
outer loop
vertex 1.3461538461538463 6.346153846153846 4.730769230769231
vertex 0.4473684210526315 7.605263157894738 6.289473684210526
vertex -3.0000000000000013 5.766666666666666 5.6
facet normal 1.0996963562753037 -3.2990890688259107 3.299089068825912
outer loop
vertex 0.4473684210526315 7.605263157894738 6.289473684210526
vertex 1.3461538461538463 6.346153846153846 4.730769230769231
vertex 2.875 7.875 5.75
endloop
endfacet
facet normal 0.5 2.220446049250313e-16 0.3333333333333335
outer loop
vertex 3.5 8.5 5.0
vertex 3.833333333333333 9.5 4.5
vertex 2.9615384615384617 8.192307692307692 5.8076923076923075
facet normal 0.5 2.220446049250313e-16 0.3333333333333335
outer loop
vertex 3.0 8.0 5.75
vertex 3.5 8.5 5.0
vertex 2.9615384615384617 8.192307692307692 5.8076923076923075
endloop
endfacet
facet normal 0.9090909090909083 -0.3030303030303033 5.551115123125783e-16
outer loop
vertex 3.5 8.5 3.0
vertex 3.833333333333333 9.5 4.5
vertex 3.4999999999999987 8.5 5.0
facet normal 0.9090909090909083 -0.3030303030303033 5.551115123125783e-16
outer loop
vertex 3.954545454545454 9.863636363636363 4.136363636363637
vertex 3.833333333333333 9.5 4.5
vertex 3.5 8.5 3.0
endloop
endfacet
facet normal 3.7060728105504213 -5.5591092158256314 -3.7060728105504204
outer loop
vertex -3.0000000000000013 5.766666666666666 5.6000000000000005
vertex 0.8333333333333321 5.277777777777778 10.166666666666666
vertex -5.41044776119403 1.9477611940298507 8.917910447761194
facet normal 3.7060728105504213 -5.5591092158256314 -3.7060728105504204
outer loop
vertex 0.8333333333333321 5.277777777777778 10.166666666666666
vertex -3.0000000000000013 5.766666666666666 5.6000000000000005
vertex 0.4473684210526301 7.605263157894736 6.2894736842105265
facet normal 3.7060728105504213 -5.5591092158256314 -3.7060728105504204
outer loop
vertex 1.299999999999998 5.9 9.7
vertex 0.8333333333333321 5.277777777777778 10.166666666666666
vertex 0.4473684210526301 7.605263157894736 6.2894736842105265
facet normal 3.7060728105504213 -5.5591092158256314 -3.7060728105504204
outer loop
vertex -4.9603174603174605 4.198412698412699 5.992063492063493
vertex -3.0000000000000013 5.766666666666666 5.6000000000000005
vertex -5.41044776119403 1.9477611940298507 8.917910447761194
endloop
endfacet
facet normal -0.03846153846153828 -0.007692307692307592 0.015384615384615004
outer loop
vertex 3.0999999999999996 11.3 7.9
vertex 3.0 12.0 8.0
vertex 3.076923076923077 11.307692307692308 7.846153846153847
endloop
endfacet
facet normal 0.23809523809523808 0.47619047619047633 0.47619047619047716
outer loop
vertex 3.1666666666666665 7.833333333333333 5.833333333333334
vertex 3.5000000000000004 8.500000000000002 5.000000000000001
vertex 3.0 8.0 5.75
facet normal 0.23809523809523808 0.47619047619047633 0.47619047619047716
outer loop
vertex 3.5000000000000004 8.500000000000002 5.000000000000001
vertex 3.1666666666666665 7.833333333333333 5.833333333333334
vertex 5.166666666666668 6.833333333333334 5.833333333333333
facet normal 0.23809523809523808 0.47619047619047633 0.47619047619047716
outer loop
vertex 3.1666666666666665 7.833333333333333 5.833333333333334
vertex 5.071428571428571 6.642857142857143 6.071428571428571
vertex 5.166666666666668 6.833333333333334 5.833333333333333
endloop
endfacet
facet normal -1.428571428571428 -2.1428571428571437 0.7142857142857144
outer loop
vertex 5.071428571428571 6.642857142857143 6.071428571428571
vertex 4.833333333333334 7.166666666666667 7.166666666666667
vertex 3.1666666666666665 7.833333333333333 5.833333333333334
facet normal -1.428571428571428 -2.1428571428571437 0.7142857142857144
outer loop
vertex 4.833333333333334 7.166666666666667 7.166666666666667
vertex 5.071428571428571 6.642857142857143 6.071428571428571
vertex 5.214285714285715 6.928571428571429 7.214285714285714
endloop
endfacet
facet normal 0.0 -0.04444444444444451 -0.08888888888888902
outer loop
vertex 3.833333333333333 9.5 4.5
vertex 5.166666666666666 6.833333333333334 5.833333333333333
vertex 3.5 8.5 5.0
facet normal 0.0 -0.04444444444444451 -0.08888888888888902
outer loop
vertex 5.166666666666666 6.833333333333334 5.833333333333333
vertex 3.833333333333333 9.5 4.5
vertex 6.785714285714285 10.071428571428571 4.214285714285714
facet normal 0.0 -0.04444444444444451 -0.08888888888888902
outer loop
vertex 3.833333333333333 9.5 4.5
vertex 4.1 10.033333333333333 4.233333333333333
vertex 6.785714285714285 10.071428571428571 4.214285714285714
facet normal 0.0 -0.04444444444444451 -0.08888888888888902
outer loop
vertex 4.1 10.033333333333333 4.233333333333333
vertex 6.499999999999999 10.833333333333332 3.8333333333333335
vertex 6.785714285714285 10.071428571428571 4.214285714285714
endloop
endfacet
facet normal 0.153846153846154 4.163336342344337e-17 -0.11538461538461567
outer loop
vertex 6.7857142857142865 10.071428571428571 4.214285714285714
vertex 6.5 10.833333333333332 3.8333333333333335
vertex 6.884615384615385 10.26923076923077 4.346153846153846
facet normal 0.153846153846154 4.163336342344337e-17 -0.11538461538461567
outer loop
vertex 6.5 10.833333333333332 3.8333333333333335
vertex 6.538461538461538 11.076923076923077 3.8846153846153846
vertex 6.884615384615385 10.26923076923077 4.346153846153846
endloop
endfacet
facet normal 0.12339743589743676 -0.12339743589743545 0.4935897435897451
outer loop
vertex 6.5 10.833333333333332 3.8333333333333335
vertex 4.6875 12.1875 4.625
vertex 4.100000000000001 10.033333333333331 4.233333333333337
facet normal 0.12339743589743676 -0.12339743589743545 0.4935897435897451
outer loop
vertex 4.6875 12.1875 4.625
vertex 6.5 10.833333333333332 3.8333333333333335
vertex 6.538461538461538 11.076923076923077 3.8846153846153846
endloop
endfacet
facet normal -0.48214285714285676 -0.48214285714285676 -0.4821428571428581
outer loop
vertex 4.249999999999998 9.500000000000002 7.75
vertex 3.285714285714283 10.785714285714288 7.428571428571429
vertex 4.687500000000001 12.187500000000005 4.625000000000003
facet normal -0.48214285714285676 -0.48214285714285676 -0.4821428571428581
outer loop
vertex 6.884615384615388 10.269230769230774 4.346153846153848
vertex 4.249999999999998 9.500000000000002 7.75
vertex 4.687500000000001 12.187500000000005 4.625000000000003
facet normal -0.48214285714285676 -0.48214285714285676 -0.4821428571428581
outer loop
vertex 4.249999999999998 9.500000000000002 7.75
vertex 6.884615384615388 10.269230769230774 4.346153846153848
vertex 5.75 8.0 7.75
facet normal -0.48214285714285676 -0.48214285714285676 -0.4821428571428581
outer loop
vertex 6.538461538461542 11.076923076923082 3.8846153846153877
vertex 6.884615384615388 10.269230769230774 4.346153846153848
vertex 4.687500000000001 12.187500000000005 4.625000000000003
endloop
endfacet
facet normal -0.7070707070707066 1.4141414141414144 -1.414141414141414
outer loop
vertex 6.499999999999999 10.5 3.5
vertex 4.1 10.033333333333333 4.233333333333333
vertex 6.499999999999998 10.833333333333332 3.833333333333333
facet normal -0.7070707070707066 1.4141414141414144 -1.414141414141414
outer loop
vertex 3.5 8.5 3.0
vertex 6.499999999999999 10.5 3.5
vertex 4.277777777777778 7.722222222222222 1.8333333333333333
facet normal -0.7070707070707066 1.4141414141414144 -1.414141414141414
outer loop
vertex 6.499999999999999 10.5 3.5
vertex 3.954545454545454 9.863636363636363 4.136363636363636
vertex 4.1 10.033333333333333 4.233333333333333
facet normal -0.7070707070707066 1.4141414141414144 -1.414141414141414
outer loop
vertex 3.5 8.5 3.0
vertex 3.954545454545454 9.863636363636363 4.136363636363636
vertex 6.499999999999999 10.5 3.5
endloop
endfacet
facet normal 1.0408340855860843e-16 0.07738095238095247 -0.05158730158730128
outer loop
vertex 3.5 8.499999999999996 3.0000000000000018
vertex 3.142857142857143 7.928571428571429 2.142857142857143
vertex 3.0 8.0 2.25
facet normal 1.0408340855860843e-16 0.07738095238095247 -0.05158730158730128
outer loop
vertex 3.142857142857143 7.928571428571429 2.142857142857143
vertex 3.5 8.499999999999996 3.0000000000000018
vertex 4.277777777777778 7.722222222222222 1.8333333333333333
endloop
endfacet
facet normal 0.1555555555555551 -0.46666666666666684 -0.4666666666666669
outer loop
vertex 1.3000000000000003 5.9 9.7
vertex 1.9000000000000008 5.633333333333333 10.166666666666666
vertex 0.8333333333333335 5.277777777777779 10.166666666666666
facet normal 0.1555555555555551 -0.46666666666666684 -0.4666666666666669
outer loop
vertex 1.9000000000000008 5.633333333333333 10.166666666666666
vertex 1.3000000000000003 5.9 9.7
vertex 1.900000000000001 5.699999999999999 10.1
endloop
endfacet
facet normal -0.19259259259259245 -0.19259259259259245 0.0
outer loop
vertex 3.500000000000001 8.5 4.999999999999999
vertex 3.5000000000000004 8.5 3.0
vertex 5.5 6.5 5.5
facet normal -0.19259259259259245 -0.19259259259259245 0.0
outer loop
vertex 5.5 6.5 2.0
vertex 3.5000000000000004 8.5 3.0
vertex 4.277777777777778 7.722222222222222 1.8333333333333333
facet normal -0.19259259259259245 -0.19259259259259245 0.0
outer loop
vertex 3.5000000000000004 8.5 3.0
vertex 5.5 6.5 2.0
vertex 5.5 6.5 5.5
facet normal -0.19259259259259245 -0.19259259259259245 0.0
outer loop
vertex 5.166666666666666 6.833333333333334 5.833333333333332
vertex 3.500000000000001 8.5 4.999999999999999
vertex 5.5 6.5 5.5
facet normal -0.19259259259259245 -0.19259259259259245 0.0
outer loop
vertex 5.433333333333334 6.566666666666666 1.8333333333333335
vertex 5.5 6.5 2.0
vertex 4.277777777777778 7.722222222222222 1.8333333333333333
endloop
endfacet
facet normal 0.3809523809523803 0.09523809523809523 -0.09523809523809486
outer loop
vertex 6.5 10.5 3.5
vertex 6.5 10.833333333333332 3.8333333333333335
vertex 6.785714285714286 10.071428571428571 4.214285714285714
facet normal 0.3809523809523803 0.09523809523809523 -0.09523809523809486
outer loop
vertex 6.928571428571429 9.357142857142858 4.071428571428571
vertex 6.5 10.5 3.5
vertex 6.785714285714286 10.071428571428571 4.214285714285714
facet normal 0.3809523809523803 0.09523809523809523 -0.09523809523809486
outer loop
vertex 6.5 10.5 3.5
vertex 6.928571428571429 9.357142857142858 4.071428571428571
vertex 6.7666666666666675 9.033333333333333 3.1
endloop
endfacet
facet normal 3.2380952380952386 -1.6190476190476193 0.0
outer loop
vertex 5.5 6.5 2.0
vertex 6.766666666666667 9.033333333333333 3.1
vertex 5.5 6.5 5.5
facet normal 3.2380952380952386 -1.6190476190476193 0.0
outer loop
vertex 6.766666666666667 9.033333333333333 3.1
vertex 6.928571428571429 9.357142857142858 4.071428571428571
vertex 5.5 6.5 5.5
facet normal 3.2380952380952386 -1.6190476190476193 0.0
outer loop
vertex 5.5 6.5 2.0
vertex 5.537037037037037 6.574074074074074 1.8703703703703705
vertex 6.766666666666667 9.033333333333333 3.1
endloop
endfacet
facet normal -0.0037037037037037854 0.0148148148148148 0.007407407407407414
outer loop
vertex 5.5 6.5 2.0
vertex 5.537037037037037 6.574074074074074 1.8703703703703705
vertex 5.433333333333334 6.566666666666666 1.8333333333333335
endloop
endfacet
facet normal -0.386904761904762 -0.193452380952381 -0.386904761904762
outer loop
vertex 1.3461538461538465 6.346153846153845 4.730769230769232
vertex 3.9166666666666674 4.833333333333332 2.916666666666667
vertex 2.884615384615385 3.884615384615384 4.423076923076923
facet normal -0.386904761904762 -0.193452380952381 -0.386904761904762
outer loop
vertex 3.9166666666666674 4.833333333333332 2.916666666666667
vertex 3.0 8.0 2.25
vertex 3.142857142857143 7.928571428571429 2.142857142857143
facet normal -0.386904761904762 -0.193452380952381 -0.386904761904762
outer loop
vertex 3.0 8.0 2.25
vertex 3.9166666666666674 4.833333333333332 2.916666666666667
vertex 1.3461538461538465 6.346153846153845 4.730769230769232
facet normal -0.386904761904762 -0.193452380952381 -0.386904761904762
outer loop
vertex 3.9166666666666674 4.833333333333332 2.916666666666667
vertex 3.395833333333334 3.791666666666665 3.958333333333334
vertex 2.884615384615385 3.884615384615384 4.423076923076923
endloop
endfacet
facet normal 1.135978835978835 3.3306690738754696e-15 5.67989417989418
outer loop
vertex 2.884615384615385 3.8846153846153846 4.423076923076924
vertex -2.9999999999999996 5.766666666666667 5.600000000000001
vertex -4.960317460317459 4.198412698412699 5.992063492063495
facet normal 1.135978835978835 3.3306690738754696e-15 5.67989417989418
outer loop
vertex 1.3461538461538463 6.346153846153846 4.730769230769231
vertex -2.9999999999999996 5.766666666666667 5.600000000000001
vertex 2.884615384615385 3.8846153846153846 4.423076923076924
endloop
endfacet
facet normal 2.170138888888888 -1.0850694444444444 -1.6653345369377348e-16
outer loop
vertex 3.2222222222222223 3.4444444444444446 2.2222222222222228
vertex 3.916666666666667 4.833333333333332 2.9166666666666665
vertex 3.3958333333333335 3.7916666666666665 3.958333333333333
endloop
endfacet
facet normal 0.21147753456221233 -2.7755575615628914e-17 -1.2688652073732716
outer loop
vertex 6.071428571428571 2.928571428571429 5.928571428571429
vertex 5.1875 3.8125 5.78125
vertex 6.86 3.98 6.0600000000000005
facet normal 0.21147753456221233 -2.7755575615628914e-17 -1.2688652073732716
outer loop
vertex 5.1875 3.8125 5.78125
vertex 5.725806451612903 4.709677419354839 5.870967741935484
vertex 6.86 3.98 6.0600000000000005
facet normal 0.21147753456221233 -2.7755575615628914e-17 -1.2688652073732716
outer loop
vertex 5.725806451612903 4.709677419354839 5.870967741935484
vertex 6.62 4.66 6.0200000000000005
vertex 6.86 3.98 6.0600000000000005
endloop
endfacet
facet normal 0.7199999999999995 -0.7200000000000002 1.4400000000000004
outer loop
vertex 5.8125 0.31250000000000044 4.75
vertex 6.071428571428571 2.928571428571429 5.928571428571429
vertex 5.34 1.1000000000000003 5.38
facet normal 0.7199999999999995 -0.7200000000000002 1.4400000000000004
outer loop
vertex 6.071428571428571 2.928571428571429 5.928571428571429
vertex 5.8125 0.31250000000000044 4.75
vertex 9.000000000000002 3.4999999999999996 4.750000000000001
facet normal 0.7199999999999995 -0.7200000000000002 1.4400000000000004
outer loop
vertex 8.029411764705882 4.147058823529411 5.558823529411765
vertex 6.071428571428571 2.928571428571429 5.928571428571429
vertex 9.000000000000002 3.4999999999999996 4.750000000000001
facet normal 0.7199999999999995 -0.7200000000000002 1.4400000000000004
outer loop
vertex 8.029411764705882 4.147058823529411 5.558823529411765
vertex 6.86 3.9800000000000004 6.0600000000000005
vertex 6.071428571428571 2.928571428571429 5.928571428571429
endloop
endfacet
facet normal 1.0914285714285719 0.5457142857142862 -3.274285714285714
outer loop
vertex 6.071428571428571 2.928571428571429 5.928571428571429
vertex 4.265625 2.8906249999999996 5.3203125
vertex 5.1875 3.812499999999999 5.78125
facet normal 1.0914285714285719 0.5457142857142862 -3.274285714285714
outer loop
vertex 4.265625 2.8906249999999996 5.3203125
vertex 6.071428571428571 2.928571428571429 5.928571428571429
vertex 5.34 1.1000000000000005 5.38
endloop
endfacet
facet normal -0.658318014705882 -0.39499080882352916 3.3306690738754696e-16
outer loop
vertex 5.624999999999999 0.6249999999999992 3.375
vertex 4.265625 2.890625000000001 5.3203125
vertex 4.0588235294117645 3.2352941176470598 4.9411764705882355
facet normal -0.658318014705882 -0.39499080882352916 3.3306690738754696e-16
outer loop
vertex 4.265625 2.890625000000001 5.3203125
vertex 5.624999999999999 0.6249999999999992 3.375
vertex 5.34 1.1 5.38
facet normal -0.658318014705882 -0.39499080882352916 3.3306690738754696e-16
outer loop
vertex 5.624999999999999 0.6249999999999992 3.375
vertex 5.8125 0.31249999999999944 4.75
vertex 5.34 1.1 5.38
facet normal -0.658318014705882 -0.39499080882352916 3.3306690738754696e-16
outer loop
vertex 5.818181818181818 0.3030303030303022 4.7272727272727275
vertex 5.8125 0.31249999999999944 4.75
vertex 5.624999999999999 0.6249999999999992 3.375
endloop
endfacet
facet normal 0.5083869485294116 -0.2541934742647056 -0.508386948529412
outer loop
vertex 4.265625 2.890625 5.3203125
vertex 4.1875 3.75 4.812500000000001
vertex 5.1875 3.8125 5.78125
facet normal 0.5083869485294116 -0.2541934742647056 -0.508386948529412
outer loop
vertex 4.1875 3.75 4.812500000000001
vertex 5.499999999999999 4.8 5.6000000000000005
vertex 5.1875 3.8125 5.78125
facet normal 0.5083869485294116 -0.2541934742647056 -0.508386948529412
outer loop
vertex 5.499999999999999 4.8 5.6000000000000005
vertex 5.725806451612903 4.709677419354839 5.870967741935484
vertex 5.1875 3.8125 5.78125
facet normal 0.5083869485294116 -0.2541934742647056 -0.508386948529412
outer loop
vertex 4.265625 2.890625 5.3203125
vertex 4.0588235294117645 3.235294117647059 4.9411764705882355
vertex 4.1875 3.75 4.812500000000001
endloop
endfacet
facet normal 17.75 0.0 17.75
outer loop
vertex 7.642857142857142 6.2142857142857135 1.357142857142858
vertex 5.625 0.625 3.375
vertex 9.875 4.875 -0.8749999999999982
facet normal 17.75 0.0 17.75
outer loop
vertex 7.642857142857142 6.2142857142857135 1.357142857142858
vertex 5.5 5.5 3.5
vertex 5.625 0.625 3.375
facet normal 17.75 0.0 17.75
outer loop
vertex 5.625 0.625 3.375
vertex 4.1875 3.75 4.8125
vertex 4.0588235294117645 3.235294117647059 4.9411764705882355
facet normal 17.75 0.0 17.75
outer loop
vertex 5.5 5.5 3.5
vertex 4.1875 3.75 4.8125
vertex 5.625 0.625 3.375
endloop
endfacet
facet normal -3.8820346320346326 5.823051948051949 1.9410173160173176
outer loop
vertex 9.92857142857143 3.500000000000001 3.3571428571428577
vertex 9.875 4.875000000000001 -0.875
vertex 5.625 0.625 3.375
facet normal -3.8820346320346326 5.823051948051949 1.9410173160173176
outer loop
vertex 10.869230769230771 5.146153846153847 0.30000000000000027
vertex 9.875 4.875000000000001 -0.875
vertex 9.92857142857143 3.500000000000001 3.3571428571428577
facet normal -3.8820346320346326 5.823051948051949 1.9410173160173176
outer loop
vertex 5.818181818181818 0.3030303030303028 4.7272727272727275
vertex 9.92857142857143 3.500000000000001 3.3571428571428577
vertex 5.625 0.625 3.375
endloop
endfacet
facet normal 1.3322676295501878e-15 -0.47419354838709626 -0.15806451612903216
outer loop
vertex 7.642857142857142 6.21428571428572 1.3571428571428594
vertex 9.029411764705882 6.088235294117656 1.7352941176470624
vertex 9.195652173913043 6.021739130434792 1.934782608695655
facet normal 1.3322676295501878e-15 -0.47419354838709626 -0.15806451612903216
outer loop
vertex 5.5 5.5 3.4999999999999996
vertex 7.642857142857142 6.21428571428572 1.3571428571428594
vertex 9.195652173913043 6.021739130434792 1.934782608695655
facet normal 1.3322676295501878e-15 -0.47419354838709626 -0.15806451612903216
outer loop
vertex 7.5588235294117645 4.794117647058829 5.617647058823531
vertex 5.5 5.5 3.4999999999999996
vertex 9.195652173913043 6.021739130434792 1.934782608695655
facet normal 1.3322676295501878e-15 -0.47419354838709626 -0.15806451612903216
outer loop
vertex 5.5 5.5 3.4999999999999996
vertex 7.5588235294117645 4.794117647058829 5.617647058823531
vertex 5.5 4.8 5.6
facet normal 1.3322676295501878e-15 -0.47419354838709626 -0.15806451612903216
outer loop
vertex 7.5588235294117645 4.794117647058829 5.617647058823531
vertex 6.62 4.660000000000003 6.0200000000000005
vertex 5.5 4.8 5.6
facet normal 1.3322676295501878e-15 -0.47419354838709626 -0.15806451612903216
outer loop
vertex 6.62 4.660000000000003 6.0200000000000005
vertex 5.725806451612903 4.709677419354839 5.870967741935484
vertex 5.5 4.8 5.6
endloop
endfacet
facet normal -0.2682352941176468 -0.13411764705882379 -0.6705882352941168
outer loop
vertex 8.029411764705882 4.147058823529412 5.5588235294117645
vertex 6.86 3.98 6.06
vertex 7.5588235294117645 4.794117647058823 5.617647058823529
facet normal -0.2682352941176468 -0.13411764705882379 -0.6705882352941168
outer loop
vertex 6.86 3.98 6.06
vertex 6.62 4.66 6.02
vertex 7.5588235294117645 4.794117647058823 5.617647058823529
endloop
endfacet
facet normal -0.07244318181818105 0.07244318181818105 -0.04829545454545592
outer loop
vertex 9.000000000000002 3.500000000000001 4.75
vertex 9.928571428571445 3.4999999999999867 3.3571428571428674
vertex 5.818181818181818 0.30303030303030276 4.7272727272727275
facet normal -0.07244318181818105 0.07244318181818105 -0.04829545454545592
outer loop
vertex 5.8125 0.3125 4.75
vertex 9.000000000000002 3.500000000000001 4.75
vertex 5.818181818181818 0.30303030303030276 4.7272727272727275
endloop
endfacet
facet normal 2.756249999999999 -2.7562499999999996 -0.9187500000000002
outer loop
vertex 5.5 5.5 3.5000000000000004
vertex 5.5 4.8 5.6
vertex 4.1875 3.75 4.8125
endloop
endfacet
facet normal -1.3299232736572923 -0.8866155157715258 -0.8866155157715275
outer loop
vertex 7.5588235294117645 4.794117647058823 5.617647058823529
vertex 8.999999999999998 3.499999999999999 4.749999999999998
vertex 8.02941176470588 4.147058823529411 5.558823529411764
facet normal -1.3299232736572923 -0.8866155157715258 -0.8866155157715275
outer loop
vertex 9.195652173913043 6.021739130434782 1.9347826086956528
vertex 8.999999999999998 3.499999999999999 4.749999999999998
vertex 7.5588235294117645 4.794117647058823 5.617647058823529
facet normal -1.3299232736572923 -0.8866155157715258 -0.8866155157715275
outer loop
vertex 9.928571428571425 3.4999999999999982 3.357142857142856
vertex 8.999999999999998 3.499999999999999 4.749999999999998
vertex 9.195652173913043 6.021739130434782 1.9347826086956528
facet normal -1.3299232736572923 -0.8866155157715258 -0.8866155157715275
outer loop
vertex 9.928571428571425 3.4999999999999982 3.357142857142856
vertex 9.666666666666664 5.833333333333332 1.4166666666666679
vertex 10.869230769230768 5.146153846153844 0.2999999999999998
facet normal -1.3299232736572923 -0.8866155157715258 -0.8866155157715275
outer loop
vertex 9.666666666666664 5.833333333333332 1.4166666666666679
vertex 9.928571428571425 3.4999999999999982 3.357142857142856
vertex 9.195652173913043 6.021739130434782 1.9347826086956528
endloop
endfacet
facet normal 0.13655462184873934 0.6827731092436974 -0.2731092436974794
outer loop
vertex 9.666666666666666 5.833333333333333 1.4166666666666667
vertex 9.875 4.874999999999998 -0.8749999999999991
vertex 7.642857142857142 6.2142857142857135 1.3571428571428572
facet normal 0.13655462184873934 0.6827731092436974 -0.2731092436974794
outer loop
vertex 9.875 4.874999999999998 -0.8749999999999991
vertex 9.666666666666666 5.833333333333333 1.4166666666666667
vertex 10.86923076923077 5.146153846153846 0.30000000000000027
facet normal 0.13655462184873934 0.6827731092436974 -0.2731092436974794
outer loop
vertex 9.029411764705882 6.088235294117647 1.7352941176470589
vertex 9.666666666666666 5.833333333333333 1.4166666666666667
vertex 7.642857142857142 6.2142857142857135 1.3571428571428572
endloop
endfacet
facet normal 0.07203751065643618 0.18009377664109094 -4.85722573273506e-16
outer loop
vertex 9.195652173913043 6.021739130434783 1.934782608695652
vertex 9.666666666666666 5.833333333333333 1.4166666666666667
vertex 9.029411764705882 6.088235294117647 1.7352941176470589
endloop
endfacet
facet normal 4.147252747252749 4.14725274725275 3.3306690738754696e-16
outer loop
vertex 6.1 2.9 11.1
vertex 6.884615384615385 2.115384615384615 7.961538461538462
vertex 3.928571428571429 5.07142857142857 8.928571428571429
facet normal 4.147252747252749 4.14725274725275 3.3306690738754696e-16
outer loop
vertex 6.884615384615385 2.115384615384615 7.961538461538462
vertex 5.187500000000001 3.812499999999999 5.78125
vertex 3.928571428571429 5.07142857142857 8.928571428571429
facet normal 4.147252747252749 4.14725274725275 3.3306690738754696e-16
outer loop
vertex 5.187500000000001 3.812499999999999 5.78125
vertex 6.884615384615385 2.115384615384615 7.961538461538462
vertex 6.071428571428571 2.9285714285714284 5.928571428571429
endloop
endfacet
facet normal 7.408695652173909 2.4695652173913016 -2.4695652173913025
outer loop
vertex 7.8478260869565215 3.239130434782609 8.282608695652174
vertex 6.757142857142858 6.557142857142857 8.32857142857143
vertex 8.282608695652174 5.413043478260869 11.76086956521739
facet normal 7.408695652173909 2.4695652173913016 -2.4695652173913025
outer loop
vertex 6.566666666666666 5.033333333333333 6.2333333333333325
vertex 7.8478260869565215 3.239130434782609 8.282608695652174
vertex 6.86 3.9799999999999995 6.06
facet normal 7.408695652173909 2.4695652173913016 -2.4695652173913025
outer loop
vertex 7.8478260869565215 3.239130434782609 8.282608695652174
vertex 6.566666666666666 5.033333333333333 6.2333333333333325
vertex 6.757142857142858 6.557142857142857 8.32857142857143
facet normal 7.408695652173909 2.4695652173913016 -2.4695652173913025
outer loop
vertex 6.62 4.66 6.019999999999999
vertex 6.566666666666666 5.033333333333333 6.2333333333333325
vertex 6.86 3.9799999999999995 6.06
endloop
endfacet
facet normal 2.5456282847587204 -1.6970855231724782 -1.697085523172481
outer loop
vertex 6.859999999999999 3.9800000000000004 6.060000000000001
vertex 7.8478260869565215 3.239130434782609 8.282608695652174
vertex 6.884615384615386 2.1153846153846163 7.961538461538462
facet normal 2.5456282847587204 -1.6970855231724782 -1.697085523172481
outer loop
vertex 6.071428571428572 2.92857142857143 5.928571428571429
vertex 6.859999999999999 3.9800000000000004 6.060000000000001
vertex 6.884615384615386 2.1153846153846163 7.961538461538462
endloop
endfacet
facet normal 0.7418686224489817 -0.4945790816326523 0.49457908163265346
outer loop
vertex 3.928571428571429 5.071428571428571 8.928571428571429
vertex 5.624999999999998 6.312500000000002 7.624999999999998
vertex 3.928571428571429 5.464285714285714 9.321428571428571
facet normal 0.7418686224489817 -0.4945790816326523 0.49457908163265346
outer loop
vertex 3.928571428571429 5.071428571428571 8.928571428571429
vertex 5.833333333333332 5.166666666666669 6.166666666666666
vertex 5.624999999999998 6.312500000000002 7.624999999999998
facet normal 0.7418686224489817 -0.4945790816326523 0.49457908163265346
outer loop
vertex 5.833333333333332 5.166666666666669 6.166666666666666
vertex 5.1875 3.8125000000000004 5.78125
vertex 5.725806451612902 4.70967741935484 5.870967741935483
facet normal 0.7418686224489817 -0.4945790816326523 0.49457908163265346
outer loop
vertex 5.1875 3.8125000000000004 5.78125
vertex 5.833333333333332 5.166666666666669 6.166666666666666
vertex 3.928571428571429 5.071428571428571 8.928571428571429
endloop
endfacet
facet normal 0.06623655913978475 0.19870967741935538 -0.33118279569892456
outer loop
vertex 6.62 4.66 6.02
vertex 5.725806451612904 4.709677419354839 5.870967741935484
vertex 5.833333333333334 5.166666666666666 6.166666666666668
facet normal 0.06623655913978475 0.19870967741935538 -0.33118279569892456
outer loop
vertex 6.566666666666666 5.033333333333333 6.233333333333333
vertex 6.62 4.66 6.02
vertex 5.833333333333334 5.166666666666666 6.166666666666668
endloop
endfacet
facet normal -1.609823385706477e-15 -2.857639751552797 -0.9525465838509316
outer loop
vertex 9.357142857142858 3.071428571428571 8.785714285714285
vertex 14.5 3.4999999999999964 7.499999999999998
vertex 16.642857142857142 3.0714285714285676 8.785714285714283
facet normal -1.609823385706477e-15 -2.857639751552797 -0.9525465838509316
outer loop
vertex 8.029411764705882 4.147058823529411 5.5588235294117645
vertex 14.5 3.4999999999999964 7.499999999999998
vertex 9.357142857142858 3.071428571428571 8.785714285714285
facet normal -1.609823385706477e-15 -2.857639751552797 -0.9525465838509316
outer loop
vertex 8.029411764705882 4.147058823529411 5.5588235294117645
vertex 7.8478260869565215 3.239130434782609 8.282608695652174
vertex 6.86 3.98 6.0600000000000005
facet normal -1.609823385706477e-15 -2.857639751552797 -0.9525465838509316
outer loop
vertex 7.8478260869565215 3.239130434782609 8.282608695652174
vertex 8.029411764705882 4.147058823529411 5.5588235294117645
vertex 9.357142857142858 3.071428571428571 8.785714285714285
endloop
endfacet
facet normal -1.829670329670329 0.457417582417583 0.9148351648351656
outer loop
vertex 5.153846153846152 -1.6923076923076916 6.403846153846155
vertex 6.625 1.25 7.875
vertex 5.339999999999999 1.1000000000000003 5.380000000000001
facet normal -1.829670329670329 0.457417582417583 0.9148351648351656
outer loop
vertex 6.625 1.25 7.875
vertex 6.071428571428571 2.9285714285714284 5.928571428571429
vertex 5.339999999999999 1.1000000000000003 5.380000000000001
facet normal -1.829670329670329 0.457417582417583 0.9148351648351656
outer loop
vertex 6.071428571428571 2.9285714285714284 5.928571428571429
vertex 6.625 1.25 7.875
vertex 6.884615384615385 2.115384615384615 7.961538461538462
endloop
endfacet
facet normal 14.799107142857139 -14.79910714285714 -29.598214285714285
outer loop
vertex 5.812499999999993 0.3124999999999929 4.75
vertex 8.999999999999996 3.4999999999999964 4.75
vertex 5.499999999999991 -2.500000000000009 6.0
facet normal 14.799107142857139 -14.79910714285714 -29.598214285714285
outer loop
vertex 8.999999999999996 3.4999999999999964 4.75
vertex 14.5 3.499999999999999 7.5
vertex 5.499999999999991 -2.500000000000009 6.0
facet normal 14.799107142857139 -14.79910714285714 -29.598214285714285
outer loop
vertex 14.5 3.499999999999999 7.5
vertex 16.642857142857142 3.071428571428571 8.785714285714285
vertex 5.499999999999991 -2.500000000000009 6.0
endloop
endfacet
facet normal -1.9546153846153858 -0.2792307692307697 -1.116923076923079
outer loop
vertex 5.153846153846153 -1.692307692307692 6.403846153846154
vertex 5.34 1.1000000000000023 5.38
vertex 5.8125 0.3125000000000022 4.75
facet normal -1.9546153846153858 -0.2792307692307697 -1.116923076923079
outer loop
vertex 5.5 -2.5 6.0
vertex 5.153846153846153 -1.692307692307692 6.403846153846154
vertex 5.8125 0.3125000000000022 4.75
endloop
endfacet
facet normal 1.7794117647058834 7.117647058823529 -3.5588235294117667
outer loop
vertex 14.5 3.5 7.5
vertex 9.000000000000004 3.4999999999999996 4.750000000000001
vertex 8.029411764705886 4.147058823529411 5.5588235294117645
endloop
endfacet
facet normal -9.689860920329672 -6.459907280219779 -19.379721840659343
outer loop
vertex 1.785714285714284 2.214285714285716 6.785714285714286
vertex 5.153846153846152 -1.6923076923076925 6.403846153846154
vertex 3.423076923076923 -5.153846153846155 8.423076923076923
facet normal -9.689860920329672 -6.459907280219779 -19.379721840659343
outer loop
vertex 5.339999999999998 1.0999999999999996 5.38
vertex 1.785714285714284 2.214285714285716 6.785714285714286
vertex 4.265624999999998 2.8906250000000018 5.3203125
facet normal -9.689860920329672 -6.459907280219779 -19.379721840659343
outer loop
vertex 5.339999999999998 1.0999999999999996 5.38
vertex 5.153846153846152 -1.6923076923076925 6.403846153846154
vertex 1.785714285714284 2.214285714285716 6.785714285714286
endloop
endfacet
facet normal 1.6626674107142856 -2.494001116071428 1.6626674107142854
outer loop
vertex 4.265625 2.8906250000000004 5.3203125
vertex 3.9285714285714293 5.071428571428572 8.928571428571429
vertex 1.785714285714286 2.2142857142857144 6.785714285714286
facet normal 1.6626674107142856 -2.494001116071428 1.6626674107142854
outer loop
vertex 3.9285714285714293 5.071428571428572 8.928571428571429
vertex 4.265625 2.8906250000000004 5.3203125
vertex 5.187500000000001 3.812500000000001 5.78125
endloop
endfacet
facet normal -4.449364897126092 -22.24682448563045 -17.797459588504363
outer loop
vertex 1.785714285714291 2.2142857142857135 6.785714285714285
vertex -5.41044776119403 1.9477611940298507 8.917910447761194
vertex -4.96031746031746 4.198412698412699 5.992063492063491
facet normal -4.449364897126092 -22.24682448563045 -17.797459588504363
outer loop
vertex 1.785714285714291 2.2142857142857135 6.785714285714285
vertex 4.05882352941177 3.2352941176470575 4.941176470588234
vertex 4.265625000000005 2.8906249999999987 5.320312499999998
facet normal -4.449364897126092 -22.24682448563045 -17.797459588504363
outer loop
vertex 2.8846153846153886 3.8846153846153837 4.423076923076922
vertex 4.05882352941177 3.2352941176470575 4.941176470588234
vertex 1.785714285714291 2.2142857142857135 6.785714285714285
facet normal -4.449364897126092 -22.24682448563045 -17.797459588504363
outer loop
vertex 4.05882352941177 3.2352941176470575 4.941176470588234
vertex 2.8846153846153886 3.8846153846153837 4.423076923076922
vertex 3.7156862745098085 3.5784313725490184 4.598039215686272
facet normal -4.449364897126092 -22.24682448563045 -17.797459588504363
outer loop
vertex 2.8846153846153886 3.8846153846153837 4.423076923076922
vertex 1.785714285714291 2.2142857142857135 6.785714285714285
vertex -4.96031746031746 4.198412698412699 5.992063492063491
endloop
endfacet
facet normal 0.15855957767722478 0.4756787330316745 0.07927978883861223
outer loop
vertex 3.715686274509804 3.5784313725490198 4.598039215686274
vertex 3.3958333333333335 3.7916666666666665 3.958333333333333
vertex 2.8846153846153846 3.8846153846153846 4.423076923076923
endloop
endfacet
facet normal 1.433102652825838 1.0748269896193776 -0.358275663206458
outer loop
vertex 3.222222222222224 3.444444444444446 2.222222222222222
vertex 5.625 0.6249999999999991 3.375
vertex 3.875000000000008 -1.1249999999999942 -8.875000000000004
facet normal 1.433102652825838 1.0748269896193776 -0.358275663206458
outer loop
vertex 3.222222222222224 3.444444444444446 2.222222222222222
vertex 4.0588235294117645 3.235294117647059 4.9411764705882355
vertex 5.625 0.6249999999999991 3.375
facet normal 1.433102652825838 1.0748269896193776 -0.358275663206458
outer loop
vertex 4.0588235294117645 3.235294117647059 4.9411764705882355
vertex 3.395833333333334 3.791666666666667 3.958333333333333
vertex 3.715686274509804 3.5784313725490198 4.598039215686274
facet normal 1.433102652825838 1.0748269896193776 -0.358275663206458
outer loop
vertex 3.395833333333334 3.791666666666667 3.958333333333333
vertex 4.0588235294117645 3.235294117647059 4.9411764705882355
vertex 3.222222222222224 3.444444444444446 2.222222222222222
endloop
endfacet
facet normal 0.1698717948717961 0.1698717948717938 -0.5096153846153849
outer loop
vertex 1.3461538461538463 6.346153846153846 4.730769230769231
vertex 5.071428571428568 6.642857142857142 6.071428571428577
vertex 2.8846153846153806 3.884615384615384 4.4230769230769305
facet normal 0.1698717948717961 0.1698717948717938 -0.5096153846153849
outer loop
vertex 5.499999999999993 4.799999999999999 5.60000000000001
vertex 4.187499999999995 3.749999999999999 4.81250000000001
vertex 5.499999999999995 5.699999999999999 5.900000000000008
facet normal 0.1698717948717961 0.1698717948717938 -0.5096153846153849
outer loop
vertex 4.187499999999995 3.749999999999999 4.81250000000001
vertex 5.071428571428568 6.642857142857142 6.071428571428577
vertex 5.499999999999995 5.699999999999999 5.900000000000008
facet normal 0.1698717948717961 0.1698717948717938 -0.5096153846153849
outer loop
vertex 5.071428571428568 6.642857142857142 6.071428571428577
vertex 4.187499999999995 3.749999999999999 4.81250000000001
vertex 2.8846153846153806 3.884615384615384 4.4230769230769305
facet normal 0.1698717948717961 0.1698717948717938 -0.5096153846153849
outer loop
vertex 2.8846153846153806 3.884615384615384 4.4230769230769305
vertex 4.187499999999995 3.749999999999999 4.81250000000001
vertex 3.7156862745097983 3.578431372549019 4.598039215686284
facet normal 0.1698717948717961 0.1698717948717938 -0.5096153846153849
outer loop
vertex 3.166666666666666 7.833333333333333 5.833333333333334
vertex 1.3461538461538463 6.346153846153846 4.730769230769231
vertex 2.8749999999999996 7.875 5.75
facet normal 0.1698717948717961 0.1698717948717938 -0.5096153846153849
outer loop
vertex 1.3461538461538463 6.346153846153846 4.730769230769231
vertex 3.166666666666666 7.833333333333333 5.833333333333334
vertex 5.071428571428568 6.642857142857142 6.071428571428577
endloop
endfacet
facet normal 0.15053763440860227 0.037634408602150254 -0.11290322580645155
outer loop
vertex 5.5 4.8 5.6
vertex 5.500000000000001 5.7 5.8999999999999995
vertex 5.833333333333334 5.166666666666667 6.166666666666667
facet normal 0.15053763440860227 0.037634408602150254 -0.11290322580645155
outer loop
vertex 5.725806451612903 4.709677419354839 5.870967741935484
vertex 5.5 4.8 5.6
vertex 5.833333333333334 5.166666666666667 6.166666666666667
endloop
endfacet
facet normal -0.13246107266436005 0.08830738177624009 0.22076845444059967
outer loop
vertex 4.0588235294117645 3.235294117647059 4.9411764705882355
vertex 4.1875 3.75 4.8125
vertex 3.715686274509804 3.5784313725490198 4.598039215686274
endloop
endfacet
facet normal 0.4442401960784315 -0.666360294117647 -0.4442401960784311
outer loop
vertex 5.500000000000001 5.500000000000001 3.5
vertex 4.1875 3.75 4.8125
vertex 3.916666666666667 4.833333333333333 2.9166666666666665
facet normal 0.4442401960784315 -0.666360294117647 -0.4442401960784311
outer loop
vertex 3.3958333333333335 3.7916666666666665 3.958333333333333
vertex 4.1875 3.75 4.8125
vertex 3.715686274509804 3.5784313725490198 4.598039215686274
facet normal 0.4442401960784315 -0.666360294117647 -0.4442401960784311
outer loop
vertex 4.1875 3.75 4.8125
vertex 3.3958333333333335 3.7916666666666665 3.958333333333333
vertex 3.916666666666667 4.833333333333333 2.9166666666666665
facet normal 0.4442401960784315 -0.666360294117647 -0.4442401960784311
outer loop
vertex 5.500000000000001 6.5 2.0
vertex 3.916666666666667 4.833333333333333 2.9166666666666665
vertex 5.4333333333333345 6.566666666666667 1.8333333333333335
facet normal 0.4442401960784315 -0.666360294117647 -0.4442401960784311
outer loop
vertex 5.500000000000001 6.5 2.0
vertex 5.500000000000001 5.500000000000001 3.5
vertex 3.916666666666667 4.833333333333333 2.9166666666666665
endloop
endfacet
facet normal -59.5 59.5 0.0
outer loop
vertex 5.625 0.625 3.3750000000000018
vertex 9.875000000000004 4.8750000000000036 -0.8749999999999982
vertex 3.875 -1.125 -8.875
facet normal -59.5 59.5 0.0
outer loop
vertex 9.875000000000004 4.8750000000000036 -0.8749999999999982
vertex 8.125000000000002 3.1250000000000018 -13.125
vertex 3.875 -1.125 -8.875
endloop
endfacet
facet normal 1.0714285714285725 3.2142857142857135 2.1428571428571423
outer loop
vertex 7.642857142857142 6.2142857142857135 1.3571428571428572
vertex 7.0 6.461538461538462 1.3076923076923073
vertex 5.5 5.5 3.5
facet normal 1.0714285714285725 3.2142857142857135 2.1428571428571423
outer loop
vertex 7.0 6.461538461538462 1.3076923076923073
vertex 5.5 6.5 2.0
vertex 5.5 5.5 3.5
facet normal 1.0714285714285725 3.2142857142857135 2.1428571428571423
outer loop
vertex 7.0 6.461538461538462 1.3076923076923073
vertex 5.537037037037037 6.574074074074074 1.8703703703703702
vertex 5.5 6.5 2.0
endloop
endfacet
facet normal -12.49999999999999 -31.250000000000007 6.25
outer loop
vertex 9.875 4.875 -0.8750000000000071
vertex 7.0 4.999999999999999 -6.000000000000003
vertex 8.125 3.125 -13.125
facet normal -12.49999999999999 -31.250000000000007 6.25
outer loop
vertex 7.000000000000001 6.46153846153846 1.307692307692303
vertex 7.0 4.999999999999999 -6.000000000000003
vertex 9.875 4.875 -0.8750000000000071
facet normal -12.49999999999999 -31.250000000000007 6.25
outer loop
vertex 7.642857142857143 6.214285714285712 1.3571428571428505
vertex 7.000000000000001 6.46153846153846 1.307692307692303
vertex 9.875 4.875 -0.8750000000000071
endloop
endfacet
facet normal 1.0871848739495795 2.17436974789916 -3.261554621848742
outer loop
vertex 9.02941176470588 6.088235294117647 1.735294117647059
vertex 7.6428571428571415 6.2142857142857135 1.3571428571428577
vertex 7.0 8.625 2.75
facet normal 1.0871848739495795 2.17436974789916 -3.261554621848742
outer loop
vertex 7.6428571428571415 6.2142857142857135 1.3571428571428577
vertex 6.999999999999999 6.461538461538462 1.3076923076923088
vertex 7.0 8.625 2.75
endloop
endfacet
facet normal 0.2833333333333328 0.28333333333333344 -0.14166666666666694
outer loop
vertex 8.833333333333336 7.833333333333336 4.833333333333332
vertex 7.0 8.625 2.75
vertex 6.928571428571429 9.357142857142858 4.071428571428571
facet normal 0.2833333333333328 0.28333333333333344 -0.14166666666666694
outer loop
vertex 7.0 8.625 2.75
vertex 9.195652173913043 6.021739130434786 1.9347826086956514
vertex 9.029411764705884 6.088235294117649 1.7352941176470584
facet normal 0.2833333333333328 0.28333333333333344 -0.14166666666666694
outer loop
vertex 9.195652173913043 6.021739130434786 1.9347826086956514
vertex 7.0 8.625 2.75
vertex 8.833333333333336 7.833333333333336 4.833333333333332
facet normal 0.2833333333333328 0.28333333333333344 -0.14166666666666694
outer loop
vertex 7.0 8.625 2.75
vertex 6.766666666666667 9.033333333333333 3.1
vertex 6.928571428571429 9.357142857142858 4.071428571428571
endloop
endfacet
facet normal -10.23017902813299 3.4100596760443347 -3.410059676044328
outer loop
vertex 7.722222222222223 5.6111111111111125 5.944444444444445
vertex 8.833333333333334 7.833333333333333 4.833333333333334
vertex 9.195652173913043 6.021739130434784 1.9347826086956523
facet normal -10.23017902813299 3.4100596760443347 -3.410059676044328
outer loop
vertex 7.558823529411765 4.794117647058825 5.617647058823529
vertex 7.722222222222223 5.6111111111111125 5.944444444444445
vertex 9.195652173913043 6.021739130434784 1.9347826086956523
endloop
endfacet
facet normal -0.372549019607843 0.37254901960784376 -0.7450980392156857
outer loop
vertex 6.566666666666667 5.033333333333334 6.233333333333333
vertex 7.5588235294117645 4.794117647058824 5.617647058823529
vertex 6.620000000000001 4.660000000000001 6.02
facet normal -0.372549019607843 0.37254901960784376 -0.7450980392156857
outer loop
vertex 7.5588235294117645 4.794117647058824 5.617647058823529
vertex 6.566666666666667 5.033333333333334 6.233333333333333
vertex 7.722222222222222 5.611111111111111 5.944444444444445
endloop
endfacet
facet normal -3.5 -0.0 -0.0
outer loop
vertex 5.5 5.5 3.5
vertex 5.5 6.5 5.5
vertex 5.5 6.5 2.0
facet normal -3.5 -0.0 -0.0
outer loop
vertex 5.5 6.5 5.5
vertex 5.5 5.5 3.5
vertex 5.5 4.8 5.6
facet normal -3.5 -0.0 -0.0
outer loop
vertex 5.5 6.5 5.5
vertex 5.5 4.8 5.6
vertex 5.5 5.7 5.9
endloop
endfacet
facet normal -1.2857142857142865 5.142857142857135 3.8571428571428594
outer loop
vertex 16.642857142857146 3.071428571428571 8.785714285714285
vertex 23.5 3.5 10.5
vertex 14.500000000000002 3.5 7.5
endloop
endfacet
facet normal -17.862068965517242 -17.862068965517253 53.58620689655173
outer loop
vertex 8.982758620689655 7.051724137931034 6.844827586206899
vertex 23.5 3.5 10.5
vertex 34.5 4.5 14.5
facet normal -17.862068965517242 -17.862068965517253 53.58620689655173
outer loop
vertex 14.5 3.4999999999999996 7.500000000000002
vertex 23.5 3.5 10.5
vertex 8.982758620689655 7.051724137931034 6.844827586206899
facet normal -17.862068965517242 -17.862068965517253 53.58620689655173
outer loop
vertex 8.02941176470588 4.147058823529411 5.558823529411765
vertex 14.5 3.4999999999999996 7.500000000000002
vertex 8.982758620689655 7.051724137931034 6.844827586206899
facet normal -17.862068965517242 -17.862068965517253 53.58620689655173
outer loop
vertex 8.02941176470588 4.147058823529411 5.558823529411765
vertex 7.722222222222221 5.611111111111111 5.944444444444446
vertex 7.558823529411761 4.7941176470588225 5.617647058823531
facet normal -17.862068965517242 -17.862068965517253 53.58620689655173
outer loop
vertex 7.722222222222221 5.611111111111111 5.944444444444446
vertex 8.02941176470588 4.147058823529411 5.558823529411765
vertex 8.982758620689655 7.051724137931034 6.844827586206899
endloop
endfacet
facet normal -3.836752136752134 5.7551282051282024 -7.673504273504267
outer loop
vertex 9.666666666666668 5.833333333333332 1.4166666666666652
vertex 20.833333333333332 5.833333333333334 -4.166666666666666
vertex 10.869230769230771 5.146153846153847 0.29999999999999805
endloop
endfacet
endsolid Voronoi
